<svg width="33" height="55" viewBox="0 0 33 55" fill="none" xmlns="http://www.w3.org/2000/svg">
<path d="M15.0181 2.51618C15.427 2.13203 15.9454 1.88444 16.5013 1.80772C17.0572 1.73101 17.6232 1.82895 18.1209 2.08798C18.6266 2.35823 19.0395 2.77278 19.3054 3.28151L20.9537 6.65459C21.3738 7.49908 21.9845 8.23438 22.7378 8.80242C23.491 9.37046 24.3661 9.75568 25.294 9.92766L29.0404 10.5826C29.5971 10.6998 30.103 10.9887 30.4867 11.4085C30.8705 11.8283 31.1127 12.3579 31.1793 12.9227C31.2459 13.4874 31.1335 14.0588 30.858 14.5564C30.5824 15.054 30.1576 15.4527 29.6434 15.6962L26.2632 17.3475C25.4176 17.7671 24.6812 18.3776 24.1123 19.1305C23.5433 19.8835 23.1573 20.7584 22.9848 21.686L22.3226 25.4232C22.2091 25.9761 21.926 26.4798 21.5127 26.8644C21.0994 27.249 20.5765 27.4953 20.0166 27.5691C19.4568 27.6429 18.8879 27.5404 18.3891 27.276C17.8903 27.0116 17.4864 26.5984 17.2336 26.0938L15.5497 22.6548C15.1329 21.8342 14.5354 21.1188 13.8019 20.5625C13.0684 20.0062 12.2182 19.6234 11.3152 19.443L7.57253 18.7955C7.01955 18.6817 6.51576 18.3987 6.13111 17.9857C5.74646 17.5727 5.50003 17.0503 5.42604 16.4909C5.35204 15.9315 5.45415 15.363 5.7182 14.8642C5.98224 14.3654 6.39511 13.9611 6.89949 13.7074L10.2782 12.0642C11.1282 11.6433 11.8675 11.0288 12.4367 10.2703C13.0058 9.51178 13.3889 8.63039 13.5552 7.69702L14.2163 3.95209C14.328 3.4008 14.6095 2.89916 15.0181 2.51618Z" fill="#9547A5"/>
<path d="M5.72497 40.6463C5.93031 40.4534 6.19058 40.3291 6.46973 40.2906C6.74888 40.252 7.0331 40.3012 7.28301 40.4313C7.53689 40.567 7.74423 40.7752 7.87775 41.0306L8.70545 42.7243C8.91636 43.1484 9.22304 43.5176 9.60127 43.8028C9.9795 44.0881 10.4189 44.2815 10.8848 44.3678L12.766 44.6967C13.0456 44.7556 13.2996 44.9006 13.4923 45.1114C13.6849 45.3222 13.8066 45.5882 13.84 45.8717C13.8735 46.1553 13.817 46.4422 13.6787 46.6921C13.5403 46.9419 13.327 47.1421 13.0688 47.2644L11.3715 48.0936C10.9469 48.3043 10.5771 48.6108 10.2914 48.9889C10.0057 49.367 9.81193 49.8063 9.72533 50.2721L9.3928 52.1486C9.3358 52.4262 9.19365 52.6792 8.98613 52.8723C8.7786 53.0654 8.51601 53.1891 8.2349 53.2261C7.95379 53.2632 7.66814 53.2117 7.41767 53.079C7.16721 52.9462 6.96439 52.7387 6.83743 52.4854L5.99189 50.7586C5.78264 50.3465 5.48258 49.9873 5.11428 49.7079C4.74599 49.4286 4.31906 49.2364 3.86565 49.1458L1.98633 48.8206C1.70866 48.7635 1.45569 48.6214 1.26254 48.414C1.0694 48.2067 0.945657 47.9443 0.908503 47.6634C0.871348 47.3826 0.922622 47.0971 1.05521 46.8466C1.18779 46.5961 1.3951 46.3931 1.64837 46.2658L3.34493 45.4407C3.77174 45.2293 4.14298 44.9208 4.42877 44.5399C4.71456 44.159 4.90693 43.7164 4.9904 43.2478L5.32238 41.3673C5.37846 41.0905 5.51982 40.8386 5.72497 40.6463Z" fill="#9547A5"/>
</svg>
